<svg xmlns="http://www.w3.org/2000/svg" xmlns:xlink="http://www.w3.org/1999/xlink" id="Capa_1" x="0" y="0" version="1.1" viewBox="0 0 512 512" style="enable-background:new 0 0 512 512" xml:space="preserve"><g><path fill="#fff" d="M368.854,347.642l-91.641-91.641l91.641-91.641c5.857-5.858,5.857-15.355-0.001-21.212 c-5.857-5.858-15.355-5.858-21.213,0L256,234.788l-91.641-91.641c-5.857-5.858-15.355-5.858-21.213,0 c-5.858,5.858-5.858,15.355,0,21.213l91.641,91.641l-91.641,91.641c-5.858,5.858-5.858,15.355,0,21.213 c2.929,2.929,6.768,4.393,10.606,4.393c3.839,0,7.678-1.464,10.607-4.393L256,277.214l91.641,91.641 c2.929,2.929,6.768,4.393,10.607,4.393s7.678-1.464,10.606-4.393C374.712,362.997,374.712,353.5,368.854,347.642z"/></g></svg>