<svg xmlns="http://www.w3.org/2000/svg" xmlns:svg="http://www.w3.org/2000/svg" id="Layer_1" x="0" y="0" version="1.1" viewBox="0 0 512 512" style="enable-background:new 0 0 512 512" xml:space="preserve"><metadata id="metadata49"/><g id="g3" transform="matrix(0.87890453,0,0,0.87890625,30,32)"><g id="g5"><g id="g7"><path style="fill:#484848" id="path9" d="M 506.513,98.709 413.291,5.486 C 409.78,1.974 405.014,0 400.047,0 L 385.77,0 c -3.448,0 -6.244,2.796 -6.244,6.244 l 0,151.114 c 0,10.345 -8.387,18.732 -18.732,18.732 l -209.598,0 c -10.345,0 -18.732,-8.387 -18.732,-18.732 l 0,-151.114 C 132.464,2.796 129.668,0 126.22,0 L 18.732,0 C 8.387,0 0,8.387 0,18.732 L 0,493.269 C 0,503.613 8.387,512 18.732,512 l 474.537,0 c 10.345,0 18.732,-8.387 18.732,-18.732 l 0,-381.314 C 512,106.987 510.027,102.221 506.513,98.709 Z M 400.554,410.226 c 0,10.345 -8.387,18.732 -18.732,18.732 l -251.644,0 c -10.345,0 -18.732,-8.387 -18.732,-18.732 l 0,-147.132 c 0,-10.345 8.387,-18.732 18.732,-18.732 l 251.644,0 c 10.345,0 18.732,8.387 18.732,18.732 l 0,147.132 z"/><path style="fill:#f44336" id="path11" d="m 176.172,126.138 159.647,0 c 3.449,0 6.244,-2.796 6.244,-6.244 l 0,-113.65 C 342.063,2.796 339.267,0 335.819,0 L 176.172,0 c -3.448,0 -6.244,2.796 -6.244,6.244 l 0,113.65 c 0,3.448 2.796,6.244 6.244,6.244 z M 275.346,46.27 c 0,-10.345 8.387,-18.732 18.732,-18.732 10.345,0 18.732,8.387 18.732,18.732 l 0,33.598 c 0,10.345 -8.387,18.732 -18.732,18.732 -10.345,0 -18.732,-8.387 -18.732,-18.732 l 0,-33.598 z"/><path style="fill:#f44336" id="path13" d="m 318.413,317.93 -124.827,0 c -10.345,0 -18.732,8.387 -18.732,18.732 0,10.345 8.387,18.732 18.732,18.732 l 124.828,0 c 10.345,0 18.73,-8.387 18.73,-18.732 0,-10.345 -8.386,-18.732 -18.731,-18.732 z"/></g></g></g></svg>