<svg xmlns="http://www.w3.org/2000/svg" xmlns:xlink="http://www.w3.org/1999/xlink" id="Capa_1" x="0" y="0" version="1.1" viewBox="0 0 512 512" style="enable-background:new 0 0 512 512" xml:space="preserve"><g><path fill="#504040" d="M400.601,96.4H207.8c-8.284,0-15,6.716-15,15v81.4h-81.4c-8.284,0-15,6.716-15,15v192.801c0,8.284,6.716,15,15,15h192.8 c8.284,0,15-6.716,15-15v-81.4h81.4c8.284,0,15-6.716,15-15V111.4C415.601,103.116,408.885,96.4,400.601,96.4z M289.2,385.601 H126.4V222.8h162.8V385.601z M385.602,289.2h-0.001h-66.4v-81.4c0-8.284-6.716-15-15-15h-81.4v-66.4h162.801V289.2z"/></g></svg>